<svg width="37" height="36" viewBox="0 0 37 36" fill="none" xmlns="http://www.w3.org/2000/svg">
<path d="M14.0287 5.31206C14.4869 4.47715 15.0095 3.80637 15.5751 3.30685C13.685 3.82064 12.0097 4.91958 10.771 6.43241H13.4989C13.6635 6.03993 13.8354 5.66886 14.0287 5.31206ZM8.94534 10.1003H12.5753C12.7041 9.04418 12.9332 8.04515 13.2483 7.1246H10.2699C9.65414 8.02374 9.20308 9.04418 8.94534 10.1003ZM13.2697 10.1003H17.7302V7.11747H13.9785C13.6492 8.03087 13.4129 9.03705 13.2697 10.1003ZM14.2435 6.43241H17.723V3C16.5703 3.15699 15.4821 4.07753 14.6301 5.64032C14.494 5.89008 14.3652 6.16124 14.2435 6.43241ZM21.5105 5.64032C20.6585 4.07753 19.5702 3.14986 18.4175 3V6.43955H21.8971C21.7754 6.16124 21.6465 5.89008 21.5105 5.64032ZM22.1692 7.11747H18.4175V10.0932H22.8708C22.7348 9.03705 22.4913 8.03087 22.1692 7.11747ZM22.1119 5.31206C22.3052 5.66886 22.4842 6.03993 22.6417 6.43241H25.3695C24.1309 4.92672 22.4555 3.82064 20.5654 3.30685C21.131 3.80637 21.6537 4.47715 22.1119 5.31206ZM22.8923 7.11747C23.2073 8.03801 23.4292 9.04418 23.5653 10.0932H27.2024C26.9446 9.03705 26.4936 8.0166 25.8778 7.11747H22.8923ZM23.6369 10.7854C23.6798 11.2992 23.7013 11.8129 23.7013 12.341C23.7013 12.8191 23.6798 13.2901 23.644 13.7611H27.3599C27.4315 13.2901 27.4673 12.8191 27.4673 12.341C27.4673 11.8129 27.4243 11.292 27.3384 10.7854H23.6369ZM23.014 12.341C23.014 11.8129 22.9925 11.292 22.9424 10.7854H18.4104V13.7611H22.9567C22.9925 13.2972 23.014 12.8191 23.014 12.341ZM13.1266 12.341C13.1266 12.8191 13.148 13.2972 13.1838 13.7611H17.7302V10.7854H13.1981C13.148 11.292 13.1266 11.8129 13.1266 12.341ZM8.67327 12.341C8.67327 12.8191 8.70907 13.2972 8.78066 13.7611H12.4965C12.4607 13.2901 12.4392 12.8191 12.4392 12.341C12.4392 11.8129 12.4607 11.292 12.5037 10.7854H8.80214C8.71623 11.292 8.67327 11.8129 8.67327 12.341ZM13.012 16.7867C12.8115 16.0446 12.6612 15.2596 12.5609 14.4461H8.90954C9.09569 15.2596 9.39639 16.0517 9.79733 16.7939L13.012 16.7867ZM17.7302 14.4461H13.2554C13.3557 15.2596 13.5132 16.0446 13.728 16.7867H17.7302V14.4461ZM18.4175 14.4461V16.7867H22.4197C22.6345 16.0517 22.792 15.2596 22.8923 14.4461H18.4175ZM27.2238 14.4461H23.5724C23.4794 15.2596 23.329 16.0446 23.1214 16.7867L26.3361 16.7939C26.737 16.0517 27.0377 15.2668 27.2238 14.4461ZM13.0979 31.3085L12.3676 32.9783H23.7729L23.0426 31.3085H13.0979ZM16.3126 28.6253H19.8351V30.6234H16.3126V28.6253ZM31.9993 5.84726H25.7704C26.2645 6.43241 26.694 7.06038 27.0377 7.73116H30.8896C31.0829 7.73116 31.2332 7.88815 31.2332 8.07369V25.7139C31.2332 25.9065 31.0829 26.0564 30.8896 26.0564H5.25097C5.05766 26.0564 4.90731 25.9065 4.90731 25.7139V8.07369C4.90731 7.88102 5.05766 7.73116 5.25097 7.73116H9.10285C9.45367 7.05324 9.88325 6.411 10.3916 5.81872L4.14123 5.84726C3.51834 5.84726 3.01001 6.35392 3.01001 6.96761V26.8128C3.01001 27.4336 3.51834 27.9331 4.13407 27.9331H31.985C32.6079 27.9331 33.1091 27.4265 33.1091 26.8128V6.96761C33.1234 6.35392 32.615 5.84726 31.9993 5.84726ZM5.59463 25.3713H30.5459V8.41622H27.3599C27.8825 9.64361 28.1546 10.9709 28.1546 12.341C28.1546 13.9894 27.7465 15.6164 26.9733 17.065C27.2167 17.272 27.3742 17.586 27.3742 17.9285V22.6454C27.3742 23.2733 26.8587 23.7871 26.2287 23.7871H9.91188C9.28184 23.7871 8.76634 23.2733 8.76634 22.6454V17.9285C8.76634 17.586 8.92386 17.272 9.16728 17.065C8.39404 15.6164 7.98595 13.9966 7.98595 12.341C7.98595 10.9709 8.25801 9.64361 8.78066 8.41622H5.59463V25.3713ZM9.45367 17.9285V22.6454C9.45367 22.8951 9.6613 23.1021 9.91188 23.1021H26.2287C26.4792 23.1021 26.6869 22.8951 26.6869 22.6454V17.9285C26.6869 17.6787 26.4792 17.4718 26.2287 17.4718H9.91188C9.6613 17.4718 9.45367 17.6716 9.45367 17.9285ZM24.8325 20.6259H23.15C22.7133 20.6259 22.3553 20.2905 22.3553 19.8766V19.2701C22.3553 18.8562 22.7133 18.5208 23.15 18.5208H24.8325C25.2693 18.5208 25.6273 18.8562 25.6273 19.2701C25.6273 19.4627 25.4769 19.6126 25.2836 19.6126C25.0903 19.6126 24.9399 19.4627 24.9399 19.2701C24.9399 19.2487 24.897 19.2058 24.8325 19.2058H23.15C23.0856 19.2058 23.0426 19.2487 23.0426 19.2701V19.8766C23.0426 19.898 23.0856 19.9408 23.15 19.9408H24.8325C25.2693 19.9408 25.6273 20.2762 25.6273 20.6901V21.2967C25.6273 21.7106 25.2693 22.046 24.8325 22.046H23.15C22.7133 22.046 22.3553 21.7106 22.3553 21.2967C22.3553 21.104 22.5057 20.9542 22.699 20.9542C22.8923 20.9542 23.0426 21.104 23.0426 21.2967C23.0426 21.3181 23.0856 21.3609 23.15 21.3609H24.8325C24.897 21.3609 24.9399 21.3181 24.9399 21.2967V20.6901C24.9399 20.6687 24.897 20.6259 24.8325 20.6259ZM18.4104 18.8633C18.4104 18.6706 18.5607 18.5208 18.754 18.5208C18.9473 18.5208 19.0977 18.6706 19.0977 18.8633V20.8257L19.7922 20.0693C19.8566 19.9979 19.9497 19.9551 20.0427 19.9551C20.1358 19.9551 20.2289 19.9979 20.2933 20.0693L20.9878 20.8257V18.8633C20.9878 18.6706 21.1382 18.5208 21.3315 18.5208C21.5248 18.5208 21.6751 18.6706 21.6751 18.8633V21.7106C21.6751 21.8533 21.5892 21.9817 21.4532 22.0317C21.4102 22.046 21.3673 22.0531 21.3315 22.0531C21.2384 22.0531 21.1453 22.0174 21.0809 21.9389L20.0427 20.8114L19.0046 21.9389C18.9115 22.046 18.7612 22.0745 18.6251 22.0245C18.4963 21.9746 18.4032 21.8461 18.4032 21.7034V18.8633H18.4104ZM14.4654 18.8633C14.4654 18.6706 14.6158 18.5208 14.8091 18.5208H17.3937C17.587 18.5208 17.7374 18.6778 17.7374 18.8633C17.7374 19.056 17.587 19.2058 17.3937 19.2058H15.1527V19.9408H17.3937C17.587 19.9408 17.7374 20.0978 17.7374 20.2834C17.7374 20.476 17.587 20.6259 17.3937 20.6259H15.1527V21.3609H17.3937C17.587 21.3609 17.7374 21.5179 17.7374 21.7034C17.7374 21.8961 17.587 22.046 17.3937 22.046H14.8091C14.6158 22.046 14.4654 21.8961 14.4654 21.7034V18.8633ZM10.5205 18.8633C10.5205 18.7206 10.6064 18.5921 10.7424 18.5422C10.8784 18.4922 11.0288 18.5279 11.1219 18.635L13.1051 20.8186V18.8633C13.1051 18.6706 13.2554 18.5208 13.4487 18.5208C13.642 18.5208 13.7924 18.6706 13.7924 18.8633V21.7106C13.7924 21.8533 13.7065 21.9817 13.5704 22.0317C13.4416 22.0816 13.2841 22.046 13.191 21.9389L11.2078 19.7553V21.7106C11.2078 21.9032 11.0574 22.0531 10.8641 22.0531C10.6708 22.0531 10.5205 21.9032 10.5205 21.7106V18.8633Z" fill="url(#paint0_linear_28_2601)"/>
<defs>
<linearGradient id="paint0_linear_28_2601" x1="18.0597" y1="32.9783" x2="18.0597" y2="3" gradientUnits="userSpaceOnUse">
<stop stop-color="#0C419A"/>
<stop offset="1" stop-color="#00C0FF"/>
</linearGradient>
</defs>
</svg>
